# xmcd CD database file
#
# Track frame offsets:
#	182
#	12907
#	25357
#	37957
#	52432
#	62482
#	76807
#	92782
#	108307
#	124957
#	139657
#	150457
#	161332
#	174157
#	187657
#	200932
#	216382
#	234232
#	253057
#	267757
#	279007
#	290557
#	305332
#	315007
#	328282
#
# Disc length: 4587 seconds
#
# Revision: 0
# Processed by: cddbd v1.5.1PL2 Copyright (c) Steve Scherf et al.
# Submitted via: CDex 1.51
#
DISCID=5511e919
DTITLE=Gordon Parsons - The Legendary Gordon Parsons
DYEAR=1995
DGENRE=Country
TTITLE0=Just Passing Through
TTITLE1=Half A Dozen Stubbies In The Fridge
TTITLE2=You'll Do Me Mate
TTITLE3=Joe The Crow
TTITLE4=Lady Nicotine
TTITLE5=The Bellinger Is Home Sweet Home To Me
TTITLE6=The Whole Town's Scared Of Me
TTITLE7=Clarence River Perch
TTITLE8=Men Who Are Lost
TTITLE9=Thirty Five Hour Drover
TTITLE10=My Old Mate Jim
TTITLE11=There Is No Indespensable Man
TTITLE12=A Pub With No Beer
TTITLE13=Old Time Timber Man
TTITLE14=Call Of The Bushland
TTITLE15=Hobnail Express
TTITLE16=Red Devil
TTITLE17=Best Friend I Had
TTITLE18=Big Timber Land
TTITLE19=That's The Kind Of Life I Lead
TTITLE20=Where The Lovelight Shines
TTITLE21=Our Country Was Stolen
TTITLE22=The Biggest Fool Of Them All
TTITLE23=Running Short Of Time
TTITLE24=The Bushman's Prayer
EXTD=YEAR: 1995
EXTT0=
EXTT1=
EXTT2=
EXTT3=
EXTT4=
EXTT5=
EXTT6=
EXTT7=
EXTT8=
EXTT9=
EXTT10=
EXTT11=
EXTT12=
EXTT13=
EXTT14=
EXTT15=
EXTT16=
EXTT17=
EXTT18=
EXTT19=
EXTT20=
EXTT21=
EXTT22=
EXTT23=
EXTT24=
PLAYORDER=
